<svg xmlns="http://www.w3.org/2000/svg" width="24" height="24" viewBox="0 0 24 24">
    <path d="M10 10a1 1 0 0 1 1 1v6a1 1 0 1 1-2 0v-6a1 1 0 0 1 1-1zm4 0a1 1 0 0 1 1 1v6a1 1 0 1 1-2 0v-6a1 1 0 0 1 1-1zM3 7a1 1 0 0 1 1-1h16a1 1 0 1 1 0 2H4a1 1 0 0 1-1-1z"/>
    <path d="M10 4a1 1 0 0 0-1 1v2a1 1 0 1 1-2 0V5a3 3 0 0 1 3-3h4.005a3 3 0 0 1 3 3v2a1 1 0 1 1-2 0V5a1 1 0 0 0-1-1H10z"/>
    <path d="M6 6a1 1 0 0 1 1 1v12a1 1 0 0 0 1 1h8a1 1 0 0 0 1-1V7a1 1 0 1 1 2 0v12a3 3 0 0 1-3 3H8a3 3 0 0 1-3-3V7a1 1 0 0 1 1-1z"/>
</svg>