<svg xmlns="http://www.w3.org/2000/svg" width="20" height="20" viewBox="0 0 20 20">
  <path d="M0 10a10 10 0 1 1 20 0 10 10 0 1 1-20 0zm10-8a8 8 0 1 0 0 16 8 8 0 1 0 0-16zm0 14a1.5 1.5 0 1 0 0-3 1.5 1.5 0 1 0 0 3zM6 7.5C6 5.404 7.97 4 10 4s4 1.404 4 3.5c0 .846-.26 1.528-.675 2.07-.397.52-.902.863-1.32 1.108l-.536.293-.052.027-.4.23-.04.026A1 1 0 0 1 9 11c0-.822.635-1.27.93-1.46.18-.115.38-.22.552-.312l.05-.027.463-.253c.33-.193.576-.38.74-.596.15-.194.263-.45.263-.853 0-.665-.717-1.5-2-1.5s-2 .835-2 1.5a1 1 0 1 1-2 0zm4.887 3.815z"/>
</svg>